<svg width="50" height="51" viewBox="0 0 50 51" fill="none" xmlns="http://www.w3.org/2000/svg">
<defs>
<linearGradient id="paint0_linear_edu" x1="5" y1="25.5" x2="45" y2="25.5" gradientUnits="userSpaceOnUse">
<stop stop-color="#1B7F3A"/>
<stop offset="1" stop-color="#146530"/>
</linearGradient>
</defs>
<!-- Graduation cap top -->
<path d="M25 8.5L5 18.5L25 28.5L45 18.5L25 8.5Z" stroke="url(#paint0_linear_edu)" stroke-width="2.5" fill="none" stroke-linejoin="round"/>
<!-- Graduation cap sides -->
<path d="M10 21.5V32.5C10 32.5 15 38.5 25 38.5C35 38.5 40 32.5 40 32.5V21.5" stroke="url(#paint0_linear_edu)" stroke-width="2.5" fill="none"/>
<!-- Tassel line -->
<path d="M45 18.5V30.5" stroke="url(#paint0_linear_edu)" stroke-width="2.5" stroke-linecap="round"/>
<!-- Tassel -->
<circle cx="45" cy="32.5" r="2.5" fill="url(#paint0_linear_edu)"/>
<!-- Small leaf decoration -->
<path d="M25 40.5C25 40.5 22 41.5 22 44.5C22 46 23 47.5 25 47.5C26.5 47.5 27.5 46.5 28.5 45C28.5 45 26.5 45.3 25 44.3C23.5 43.3 25 41.5 25 40.5Z" fill="url(#paint0_linear_edu)"/>
</svg>
