<svg width="233" height="178" viewBox="0 0 233 178" fill="none" xmlns="http://www.w3.org/2000/svg">
<path d="M131.705 0.64624L78.296 88.0518L57.5039 53.7597L43.5111 76.6211L78.4931 134.07L131.804 47.0589L160.085 93.5701H117.417L103.128 116.727H174.472L188.464 93.7672L131.705 0.64624Z" fill="#C51A1B"/>
<path d="M13.2229 176.723L0.511108 145.584H12.8287L19.3324 166.278L26.1317 145.584H38.4493L25.4419 176.723H13.2229Z" fill="#6D7686"/>
<path d="M52.6391 145.584L64.8581 162.533L64.4639 155.438V145.584H75.2049V176.723H64.661L52.442 159.774L52.8361 166.869V176.723H42.0952V145.584H52.6391Z" fill="#6D7686"/>
<path d="M112.158 154.65H101.515C101.318 153.664 100.826 152.975 99.9387 152.581C99.1503 152.186 98.1649 151.989 97.081 151.989C94.716 151.989 93.5335 152.581 93.5335 153.763C93.5335 154.946 95.2087 155.931 98.6576 156.719C103.585 157.902 106.639 158.592 108.019 159.281C111.468 160.957 113.242 163.617 113.242 166.869C113.242 170.318 111.764 173.077 108.807 174.949C105.95 176.723 102.107 177.61 97.1795 177.61C92.7452 177.61 89.0992 176.526 86.2415 174.457C83.4824 172.486 82.1028 170.022 82.0043 167.165H92.7452C92.9423 168.249 93.6321 169.234 94.6175 169.825C95.5043 170.318 96.8839 170.909 97.9679 171.008C101.121 171.205 102.402 169.727 102.402 168.15C102.402 166.967 100.628 165.686 97.2781 164.997C92.4496 163.913 89.2963 163.321 87.7196 162.533C84.3692 160.858 82.5955 158.296 82.5955 154.847C82.5955 151.595 83.9751 149.132 86.8328 147.456C89.4934 145.781 93.0408 144.993 97.4752 144.993C102.008 144.993 105.555 145.978 108.118 147.851C110.384 149.329 111.764 151.694 112.158 154.65Z" fill="#6D7686"/>
<path d="M232.279 176.723H209.023V145.584H219.271V169.431H232.279V176.723Z" fill="#6D7686"/>
<path d="M110.975 145.584C111.172 145.683 111.271 145.781 111.468 145.88C113.833 147.851 115.311 150.413 115.804 153.664H122.11V176.624H132.26V153.664H140.34L143.296 145.486H110.975V145.584Z" fill="#6D7686"/>
<path d="M171.774 169.431H157.388V164.504H171.774V157.311H157.388V152.876H171.774H171.873L174.534 145.584H147.238V176.723H171.774V169.431Z" fill="#6D7686"/>
<path d="M202.717 169.431H188.33V164.504H202.717V157.311H188.33V152.876H202.717H202.815L205.476 145.584H178.18V176.723H202.717V169.431Z" fill="#6D7686"/>
</svg>
